{
  "asset": {
    "version": "2.0",
    "generator": "TurboSquid Stem Converter v1.0.0"
  },
  "accessors": [
    {
      "bufferView": 0,
      "byteOffset": 0,
      "componentType": 5126,
      "count": 1288,
      "type": "VEC3",
      "max": [
        80.0,
        40.000003814697266,
        1.7000000476837158
      ],
      "min": [
        -80.0,
        -40.000003814697266,
        0.0
      ]
    },
    {
      "bufferView": 1,
      "byteOffset": 0,
      "componentType": 5126,
      "count": 1288,
      "type": "VEC3",
      "max": [
        1.0,
        1.0,
        1.0
      ],
      "min": [
        -1.0,
        -1.0,
        -1.0
      ]
    },
    {
      "bufferView": 2,
      "byteOffset": 0,
      "componentType": 5126,
      "count": 1288,
      "type": "VEC2",
      "max": [
        0.6406819224357605,
        0.9990000128746033
      ],
      "min": [
        0.001000000978820026,
        0.010947942733764648
      ]
    },
    {
      "bufferView": 3,
      "byteOffset": 0,
      "componentType": 5123,
      "count": 6528,
      "type": "SCALAR",
      "max": [
        1287.0
      ],
      "min": [
        0.0
      ]
    },
    {
      "bufferView": 4,
      "byteOffset": 0,
      "componentType": 5126,
      "count": 2800,
      "type": "VEC3",
      "max": [
        64.67687225341797,
        35.16779708862305,
        4.696929454803467
      ],
      "min": [
        -64.68132019042969,
        -35.471885681152344,
        -0.11160922050476074
      ]
    },
    {
      "bufferView": 5,
      "byteOffset": 0,
      "componentType": 5126,
      "count": 2800,
      "type": "VEC3",
      "max": [
        1.0,
        1.0,
        1.0
      ],
      "min": [
        -1.0,
        -1.0,
        -1.0
      ]
    },
    {
      "bufferView": 6,
      "byteOffset": 0,
      "componentType": 5126,
      "count": 2800,
      "type": "VEC2",
      "max": [
        0.9626930952072144,
        0.7538301348686218
      ],
      "min": [
        0.001000000978820026,
        0.004267454147338867
      ]
    },
    {
      "bufferView": 7,
      "byteOffset": 0,
      "componentType": 5123,
      "count": 15216,
      "type": "SCALAR",
      "max": [
        2799.0
      ],
      "min": [
        0.0
      ]
    },
    {
      "bufferView": 8,
      "byteOffset": 0,
      "componentType": 5126,
      "count": 17252,
      "type": "VEC3",
      "max": [
        75.56258392333984,
        37.310325622558594,
        91.37777709960938
      ],
      "min": [
        -75.56258392333984,
        -39.650299072265625,
        0.0
      ]
    },
    {
      "bufferView": 9,
      "byteOffset": 0,
      "componentType": 5126,
      "count": 17252,
      "type": "VEC3",
      "max": [
        1.0,
        1.0,
        1.0
      ],
      "min": [
        -1.0,
        -1.0,
        -1.0
      ]
    },
    {
      "bufferView": 10,
      "byteOffset": 0,
      "componentType": 5126,
      "count": 17252,
      "type": "VEC2",
      "max": [
        0.991287350654602,
        0.9990000128746033
      ],
      "min": [
        0.0010000000474974513,
        0.0009999871253967285
      ]
    },
    {
      "bufferView": 11,
      "byteOffset": 0,
      "componentType": 5123,
      "count": 89928,
      "type": "SCALAR",
      "max": [
        17251.0
      ],
      "min": [
        0.0
      ]
    }
  ],
  "buffers": [
    {
      "byteLength": 906224,
      "uri": "Desks_Type_03_StemCell.bin"
    }
  ],
  "bufferViews": [
    {
      "buffer": 0,
      "byteOffset": 0,
      "byteLength": 15456,
      "target": 34962
    },
    {
      "buffer": 0,
      "byteOffset": 15456,
      "byteLength": 15456,
      "target": 34962
    },
    {
      "buffer": 0,
      "byteOffset": 30912,
      "byteLength": 10304,
      "target": 34962
    },
    {
      "buffer": 0,
      "byteOffset": 41216,
      "byteLength": 13056,
      "target": 34963
    },
    {
      "buffer": 0,
      "byteOffset": 54272,
      "byteLength": 33600,
      "target": 34962
    },
    {
      "buffer": 0,
      "byteOffset": 87872,
      "byteLength": 33600,
      "target": 34962
    },
    {
      "buffer": 0,
      "byteOffset": 121472,
      "byteLength": 22400,
      "target": 34962
    },
    {
      "buffer": 0,
      "byteOffset": 143872,
      "byteLength": 30432,
      "target": 34963
    },
    {
      "buffer": 0,
      "byteOffset": 174304,
      "byteLength": 207024,
      "target": 34962
    },
    {
      "buffer": 0,
      "byteOffset": 381328,
      "byteLength": 207024,
      "target": 34962
    },
    {
      "buffer": 0,
      "byteOffset": 588352,
      "byteLength": 138016,
      "target": 34962
    },
    {
      "buffer": 0,
      "byteOffset": 726368,
      "byteLength": 179856,
      "target": 34963
    }
  ],
  "materials": [
    {
      "name": "desks_type_03_wood",
      "pbrMetallicRoughness": {
        "baseColorTexture": {
          "index": 0
        },
        "metallicRoughnessTexture": {
          "index": 1
        }
      },
      "alphaMode": "OPAQUE",
      "occlusionTexture": {
        "index": 1
      },
      "normalTexture": {
        "index": 2
      }
    }
  ],
  "meshes": [
    {
      "name": "desks_type_03_wood_desk",
      "primitives": [
        {
          "mode": 4,
          "material": 0,
          "indices": 3,
          "attributes": {
            "POSITION": 0,
            "NORMAL": 1,
            "TEXCOORD_0": 2
          }
        }
      ]
    },
    {
      "name": "desks_type_03_plastic",
      "primitives": [
        {
          "mode": 4,
          "material": 0,
          "indices": 7,
          "attributes": {
            "POSITION": 4,
            "NORMAL": 5,
            "TEXCOORD_0": 6
          }
        }
      ]
    },
    {
      "name": "desks_type_03_steel_frame",
      "primitives": [
        {
          "mode": 4,
          "material": 0,
          "indices": 11,
          "attributes": {
            "POSITION": 8,
            "NORMAL": 9,
            "TEXCOORD_0": 10
          }
        }
      ]
    }
  ],
  "nodes": [
    {
      "children": [
        1
      ]
    },
    {
      "name": "Desks_Type_03_Group_$_PreRotation",
      "matrix": [
        1.0,
        0.0,
        0.0,
        0.0,
        0.0,
        -4.371138828673793e-08,
        -1.0,
        0.0,
        0.0,
        1.0,
        -4.371138828673793e-08,
        0.0,
        0.0,
        0.0,
        0.0,
        1.0
      ],
      "children": [
        2
      ]
    },
    {
      "name": "Desks_Type_03_Group",
      "children": [
        3,
        5,
        7
      ]
    },
    {
      "name": "node",
      "matrix": [
        1.0,
        0.0,
        0.0,
        0.0,
        0.0,
        1.0,
        0.0,
        0.0,
        0.0,
        0.0,
        1.0,
        0.0,
        0.0,
        1.2002811431884766,
        90.99049377441406,
        1.0
      ],
      "children": [
        4
      ]
    },
    {
      "name": "desks_type_03_wood_desk",
      "mesh": 0
    },
    {
      "name": "node_0",
      "matrix": [
        1.0,
        0.0,
        0.0,
        0.0,
        0.0,
        1.0,
        0.0,
        0.0,
        0.0,
        0.0,
        1.0,
        0.0,
        4.48333740234375,
        -5.728399276733398,
        88.341796875,
        1.0
      ],
      "children": [
        6
      ]
    },
    {
      "name": "desks_type_03_plastic",
      "mesh": 1
    },
    {
      "name": "node_1",
      "matrix": [
        1.0,
        0.0,
        0.0,
        0.0,
        0.0,
        1.0,
        0.0,
        0.0,
        0.0,
        0.0,
        1.0,
        0.0,
        0.0,
        0.12218666076660156,
        0.0,
        1.0
      ],
      "children": [
        8
      ]
    },
    {
      "name": "desks_type_03_steel_frame",
      "mesh": 2
    }
  ],
  "scenes": [
    {
      "nodes": [
        0
      ]
    }
  ],
  "scene": 0,
  "samplers": [
    {
      "magFilter": 9729,
      "minFilter": 9987,
      "wrapS": 10497,
      "wrapT": 10497
    }
  ],
  "images": [
    {
      "uri": "textures/baseColor.jpg"
    },
    {
      "uri": "textures/occlusionRoughnessMetallic.jpg"
    },
    {
      "uri": "textures/normal.png"
    }
  ],
  "textures": [
    {
      "sampler": 0,
      "source": 0
    },
    {
      "sampler": 0,
      "source": 1
    },
    {
      "sampler": 0,
      "source": 2
    }
  ]
}